<?xml version="1.0" encoding="UTF-8"?>
<svg version="1.1" xmlns="http://www.w3.org/2000/svg" width="408" height="612">
<path d="M0 0 C0.87228835 -0.00507454 1.7445767 -0.01014909 2.64329803 -0.0153774 C3.60231997 -0.01587516 4.56134191 -0.01637292 5.54942513 -0.01688576 C6.56778769 -0.02126801 7.58615025 -0.02565027 8.63537228 -0.03016531 C12.06441753 -0.04357163 15.49343706 -0.0497364 18.92250252 -0.0558567 C21.37472844 -0.06375645 23.82695319 -0.07202532 26.27917671 -0.08063698 C33.65216978 -0.10461287 41.02515862 -0.11979091 48.39817733 -0.13269705 C50.48207101 -0.13641006 52.56596402 -0.14038323 54.64985704 -0.14444971 C67.59958259 -0.16969489 80.54930923 -0.19174107 93.49905396 -0.20417786 C96.49876471 -0.20710742 99.49847544 -0.21006909 102.49818611 -0.21308327 C103.24372388 -0.21382932 103.98926165 -0.21457537 104.75739147 -0.21534403 C116.81826238 -0.22798112 128.87898531 -0.26118131 140.93978713 -0.3028851 C153.33279185 -0.34538469 165.72572101 -0.36888241 178.11879838 -0.37409842 C185.07271253 -0.37750422 192.02639576 -0.38916002 198.98023796 -0.42220116 C205.52854816 -0.45326466 212.07653039 -0.45857361 218.62492752 -0.4468174 C221.02219516 -0.4465971 223.41948172 -0.45486535 225.81668472 -0.47247124 C242.49968859 -0.58827791 255.99010775 0.07893187 268.74720955 12.13701439 C279.26609648 22.73955052 283.90857515 34.29174688 283.88092232 49.14330101 C283.88318787 50.03975342 283.88545343 50.93620583 283.88778764 51.85982347 C283.89410838 54.85815809 283.89329951 57.85644729 283.89247322 60.85478783 C283.89546593 63.00690837 283.89886872 65.15902838 283.90265083 67.31114769 C283.91148416 73.15425556 283.91382868 78.99734878 283.91446662 84.84046268 C283.91517757 88.49262138 283.91731274 92.14477636 283.91996384 95.79693413 C283.92921543 108.5427836 283.933299 121.28862261 283.93251228 134.03447533 C283.93191171 145.90753475 283.94245997 157.78054872 283.95825595 169.65359664 C283.97134126 179.85336704 283.97669575 190.05312259 283.97605687 200.25290132 C283.97580215 206.34195126 283.97863894 212.4309608 283.98923492 218.52000237 C283.9989324 224.2491537 283.99898372 229.97822615 283.99171829 235.70738029 C283.99067447 237.80596088 283.9930233 239.90454641 283.99907875 242.00311852 C284.00683039 244.87643535 284.0021329 247.74948192 283.99444771 250.6227932 C283.99959127 251.44558069 284.00473483 252.26836818 284.01003426 253.11608863 C283.92689534 267.26348145 279.40836589 278.47585805 269.3839283 288.50029564 C257.14203627 299.85051723 244.69224025 303.29996106 228.16510201 303.27072716 C227.21879254 303.27299271 226.27248308 303.27525827 225.29749757 303.27759248 C222.13643527 303.28390683 218.97541612 303.28310476 215.81434822 303.28227806 C213.54385511 303.28527114 211.2733625 303.28867402 209.00287056 303.29245567 C202.84165038 303.30128452 196.6804441 303.30363332 190.51921821 303.30427146 C186.66822017 303.30498258 182.81722565 303.30711807 178.96622849 303.30976868 C166.21993247 303.31854111 153.47364802 303.32318885 140.72734972 303.3224382 C140.0409518 303.32239825 139.35455389 303.32235829 138.64735603 303.32231712 C137.96011502 303.32227624 137.27287401 303.32223536 136.56480751 303.32219324 C125.43016857 303.32178689 114.29556345 303.33135495 103.16093429 303.34545549 C91.71363451 303.35983701 80.26635806 303.36654177 68.81904775 303.36586171 C62.39801888 303.36560695 55.97702832 303.36844617 49.55600739 303.37903976 C43.51577006 303.38873323 37.47560757 303.3887913 31.43536758 303.38152313 C29.22229465 303.38047886 27.00921702 303.3828308 24.79615211 303.38888359 C21.76743671 303.39662873 18.73897811 303.39194198 15.71026802 303.38425255 C14.84147127 303.38939611 13.97267452 303.39453967 13.07755059 303.3998391 C-3.32888265 303.30824502 -15.43632227 297.62183341 -27.56529045 286.90654564 C-29.25279045 285.13701439 -29.25279045 285.13701439 -29.25279045 283.13701439 C-29.91279045 283.13701439 -30.57279045 283.13701439 -31.25279045 283.13701439 C-32.39993482 281.06356628 -33.51920817 278.98100314 -34.62779045 276.88701439 C-35.25427483 275.72685814 -35.8807592 274.56670189 -36.52622795 273.37138939 C-41.67955752 261.9403863 -40.53834774 248.55201581 -40.51157951 236.304739 C-40.51429355 234.21246787 -40.51785679 232.12019769 -40.52219963 230.02792931 C-40.53127621 224.37516499 -40.52779911 218.7224741 -40.52144146 213.06970859 C-40.51635757 207.13849304 -40.52107947 201.20728354 -40.52421379 195.27606773 C-40.5278462 185.31914205 -40.52307308 175.3622461 -40.51353264 165.40532494 C-40.50264651 153.91160384 -40.50617777 142.41795371 -40.51718545 130.92423433 C-40.52627542 121.0351488 -40.52753533 111.14608457 -40.52230811 101.25699621 C-40.5191982 95.35971544 -40.51875216 89.46246797 -40.52538109 83.56518936 C-40.53117892 78.02062169 -40.52711315 72.4761451 -40.51559258 66.93158722 C-40.51295913 64.90276427 -40.51368846 62.87393358 -40.5181179 60.84511375 C-40.5562719 41.58684649 -39.22693466 26.78357275 -25.4441967 12.22685814 C-18.84755476 5.98679144 -9.29082859 0.02870718 0 0 Z M98.74720955 37.13701439 C97.78556892 37.66810814 96.8239283 38.19920189 95.83314705 38.74638939 C83.52289737 45.97990537 76.05640285 56.82812502 72.39393806 70.58371544 C70.99799117 78.25341996 71.31956408 86.08475994 71.34877205 93.85576439 C71.3467469 95.76425347 71.3438318 97.6727418 71.34007454 99.58122826 C71.33567196 103.56523121 71.3420153 107.54903127 71.35609627 111.53301048 C71.37318683 116.61328094 71.36333451 121.69307573 71.34537888 126.77332878 C71.33448497 130.70953959 71.33801298 134.64563954 71.34576225 138.58185387 C71.34774879 140.45395528 71.34536 142.32606711 71.33832359 144.19815636 C71.28609754 161.99429019 73.67233249 175.34933394 86.2198658 188.77373314 C92.36402813 194.51904722 99.64254181 198.83988302 107.74720955 201.13701439 C108.82422127 201.4425222 108.82422127 201.4425222 109.9229908 201.75420189 C122.38560935 204.89676201 135.99815979 202.78432253 147.18470955 196.38701439 C159.27381075 188.33440903 167.38969274 178.72613362 171.13417244 164.63701439 C172.4451687 157.15217075 172.05001051 149.52239431 171.93470955 141.94951439 C171.91963101 140.21710419 171.90594823 138.48468125 171.89369392 136.75224876 C171.8609494 132.54685093 171.80934391 128.34207646 171.74720955 124.13701439 C166.27983764 125.88508568 160.98896107 127.7949552 155.74720955 130.13701439 C155.73786385 131.02896507 155.72851814 131.92091576 155.71888924 132.83989525 C155.67454237 136.18960536 155.61278452 139.53809848 155.53969002 142.88725853 C155.51168492 144.32919911 155.49036986 145.77128737 155.47621346 147.2134304 C155.3897947 155.52403419 155.14909975 162.80985018 150.74720955 170.13701439 C150.10783455 171.23013939 149.46845955 172.32326439 148.80970955 173.44951439 C143.42995585 180.45949648 136.01933442 184.41374558 127.4308033 185.89092064 C116.87359025 186.85904935 107.64090196 184.43513623 99.1183033 178.19560814 C93.0784289 172.95176331 89.3399501 166.21606964 88.55582237 158.17417717 C88.47515908 156.01873963 88.45408374 153.87110946 88.45668221 151.71416283 C88.44660637 150.49555313 88.44660637 150.49555313 88.43632698 149.25232506 C88.41742957 146.58361649 88.41342678 143.91516059 88.41127205 141.24638939 C88.40483767 139.37702395 88.39810884 137.5076595 88.39109993 135.63829613 C88.37914726 131.72459646 88.37541696 127.81098492 88.37660408 123.8972683 C88.37680699 118.90649203 88.34952507 113.91628698 88.31505966 108.92564583 C88.29271214 105.06492633 88.28876896 101.20434251 88.28982353 97.34356499 C88.28747861 95.50493721 88.27871826 93.66630506 88.2631588 91.82774162 C88.18639812 81.81945017 88.35486449 73.35304217 92.74720955 64.13701439 C93.21424797 62.78818169 93.21424797 62.78818169 93.69072151 61.41209984 C94.21368309 60.28593254 94.21368309 60.28593254 94.74720955 59.13701439 C95.73720955 58.80701439 96.72720955 58.47701439 97.74720955 58.13701439 C98.36595955 57.39451439 98.98470955 56.65201439 99.62220955 55.88701439 C105.01727596 50.31319578 113.93695013 47.8606277 121.49720955 47.63701439 C126.61185355 47.89050986 131.0313508 49.21468643 135.74720955 51.13701439 C136.73720955 51.48763939 137.72720955 51.83826439 138.74720955 52.19951439 C140.74720955 53.13701439 140.74720955 53.13701439 141.74720955 55.13701439 C143.23220955 55.63201439 143.23220955 55.63201439 144.74720955 56.13701439 C145.73720955 57.62201439 145.73720955 57.62201439 146.74720955 59.13701439 C147.40720955 59.13701439 148.06720955 59.13701439 148.74720955 59.13701439 C149.14939705 60.15795189 149.14939705 60.15795189 149.55970955 61.19951439 C150.40964638 63.30198972 151.31173599 65.38367694 152.24720955 67.44951439 C153.83253854 71.34678149 155.09003039 74.99276214 155.74720955 79.13701439 C155.91478767 80.18115501 156.0823658 81.22529564 156.25502205 82.30107689 C156.83299132 88.98477276 156.26155689 93.27440998 152.05262947 98.46050072 C150.15798636 100.58814001 148.20098226 102.63782589 146.19105721 104.65654564 C141.69043171 108.81918116 141.69043171 108.81918116 139.74720955 114.13701439 C139.08720955 114.13701439 138.42720955 114.13701439 137.74720955 114.13701439 C135.70264896 116.30966094 135.70264896 116.30966094 133.62220955 119.01201439 C132.89775642 119.91693626 132.1733033 120.82185814 131.42689705 121.75420189 C129.55515721 123.9235725 129.55515721 123.9235725 129.74720955 126.13701439 C129.08720955 126.13701439 128.42720955 126.13701439 127.74720955 126.13701439 C127.25220955 127.62201439 127.25220955 127.62201439 126.74720955 129.13701439 C134.20091881 127.64973134 140.91157784 122.72818724 147.18470955 118.63701439 C151.9658091 115.5365022 156.88578711 112.96001491 162.02064705 110.49638939 C164.68774834 109.1666598 167.20611502 107.69136087 169.74720955 106.13701439 C170.40720955 105.80701439 171.06720955 105.47701439 171.74720955 105.13701439 C171.84782391 100.97854539 171.91947678 96.82076387 171.96693611 92.66142845 C171.98676715 91.25342499 172.01384101 89.84550057 172.04896736 88.43779564 C172.44657309 72.06579526 169.13143904 58.40401394 157.8370533 46.04717064 C152.82790788 41.34659681 146.94454262 38.03576695 140.74720955 35.13701439 C140.17067635 34.86631126 139.59414314 34.59560814 139.00013924 34.31670189 C133.35207967 31.9096141 128.09054339 31.59553456 121.99720955 31.63701439 C121.02292 31.6427346 120.04863045 31.64845482 119.04481697 31.65434837 C111.36892121 31.84453283 105.40562257 33.177958 98.74720955 37.13701439 Z M187.74720955 65.13701439 C187.74720955 65.79701439 187.74720955 66.45701439 187.74720955 67.13701439 C187.08720955 67.13701439 186.42720955 67.13701439 185.74720955 67.13701439 C183.86204832 70.90733685 184.11651425 75.04055656 184.74720955 79.13701439 C186.88291281 83.46358668 190.00016313 86.2437498 194.55970955 87.82451439 C198.778363 88.54516728 201.99141472 87.53314807 205.75502205 85.60576439 C209.14592653 83.10580344 210.69022981 80.16919635 211.74720955 76.13701439 C211.85713597 70.75061995 209.21120325 67.0443168 205.74720955 63.13701439 C202.76268467 60.76997741 199.55306403 60.72424238 195.78627205 60.80888939 C192.44404184 61.34671954 190.27884881 62.98512102 187.74720955 65.13701439 Z M36.74720955 150.13701439 C36.5553576 156.87924002 37.20766518 163.02569366 38.49720955 169.63701439 C38.65447517 170.52260033 38.8117408 171.40818626 38.97377205 172.32060814 C40.13128174 178.38417814 42.06368672 183.5958108 44.74720955 189.13701439 C45.33794767 190.48796724 45.92188792 191.84192455 46.49720955 193.19951439 C46.90970955 194.16888939 47.32220955 195.13826439 47.74720955 196.13701439 C48.40720955 196.13701439 49.06720955 196.13701439 49.74720955 196.13701439 C49.97408455 196.81763939 50.20095955 197.49826439 50.43470955 198.19951439 C52.05947101 201.83588528 54.07524212 205.16530702 56.74720955 208.13701439 C57.40720955 208.13701439 58.06720955 208.13701439 58.74720955 208.13701439 C58.99470955 208.71451439 59.24220955 209.29201439 59.49720955 209.88701439 C60.93020943 212.46641418 62.53145631 214.19823031 64.74720955 216.13701439 C65.40720955 216.13701439 66.06720955 216.13701439 66.74720955 216.13701439 C67.07720955 217.12701439 67.40720955 218.11701439 67.74720955 219.13701439 C75.7251191 225.55402859 88.2041988 234.13701439 98.74720955 234.13701439 C100.4194987 232.05051068 100.4194987 232.05051068 101.87220955 229.38701439 C102.39041267 228.50529564 102.9086158 227.62357689 103.44252205 226.71513939 C104.5766054 224.47413637 105.27759411 222.58817788 105.74720955 220.13701439 C105.1645533 219.91787376 104.58189705 219.69873314 103.98158455 219.47295189 C91.38525667 214.60078733 79.40826819 209.34206771 70.97377205 198.45732689 C70.56900642 198.02162376 70.1642408 197.58592064 69.74720955 197.13701439 C69.08720955 197.13701439 68.42720955 197.13701439 67.74720955 197.13701439 C67.47650642 196.39709251 67.2058033 195.65717064 66.92689705 194.89482689 C65.80436004 192.27061784 64.55318294 190.30266725 62.87220955 188.01201439 C55.16941197 176.48593042 54.31471245 163.59141432 52.74720955 150.13701439 C47.46720955 150.13701439 42.18720955 150.13701439 36.74720955 150.13701439 Z M190.74720955 150.13701439 C190.45845955 152.59138939 190.16970955 155.04576439 189.87220955 157.57451439 C188.34853758 169.87396058 185.97106775 180.81721696 178.74720955 191.13701439 C178.74720955 191.79701439 178.74720955 192.45701439 178.74720955 193.13701439 C178.08720955 193.13701439 177.42720955 193.13701439 176.74720955 193.13701439 C176.41720955 194.12701439 176.08720955 195.11701439 175.74720955 196.13701439 C166.60449745 205.92938194 151.86274189 218.56797918 137.64198494 219.23589134 C136.87620125 219.23806664 136.11041756 219.24024193 135.3214283 219.24248314 C125.62862168 219.1780425 125.62862168 219.1780425 117.50502205 223.79326439 C109.46470256 234.17390193 111.08682932 246.73654117 111.74720955 259.13701439 C102.17720955 259.46701439 92.60720955 259.79701439 82.74720955 260.13701439 C82.74720955 264.75701439 82.74720955 269.37701439 82.74720955 274.13701439 C108.48720955 274.13701439 134.22720955 274.13701439 160.74720955 274.13701439 C160.74720955 269.51701439 160.74720955 264.89701439 160.74720955 260.13701439 C150.51720955 259.80701439 140.28720955 259.47701439 129.74720955 259.13701439 C129.74720955 252.20701439 129.74720955 245.27701439 129.74720955 238.13701439 C132.51095955 237.55951439 135.27470955 236.98201439 138.12220955 236.38701439 C144.98017161 234.8998418 151.35593234 233.08403595 157.74720955 230.13701439 C159.12109324 229.55105673 160.49599523 228.96747706 161.87220955 228.38701439 C162.82095955 227.97451439 163.76970955 227.56201439 164.74720955 227.13701439 C164.74720955 226.47701439 164.74720955 225.81701439 164.74720955 225.13701439 C165.42783455 224.91013939 166.10845955 224.68326439 166.80970955 224.44951439 C170.44608044 222.82475293 173.77550218 220.80898182 176.74720955 218.13701439 C176.74720955 217.47701439 176.74720955 216.81701439 176.74720955 216.13701439 C177.30408455 215.91013939 177.86095955 215.68326439 178.43470955 215.44951439 C190.76881704 208.449075 199.39099984 191.051168 203.74720955 178.13701439 C206.27989522 168.69516223 207.07591459 159.88859734 206.74720955 150.13701439 C201.46720955 150.13701439 196.18720955 150.13701439 190.74720955 150.13701439 Z " fill="#1B1B1B" transform="translate(82.2527904510498,136.8629856109619)"/>
<path d="M0 0 C79.86 0 159.72 0 242 0 C242.33 0.66 242.66 1.32 243 2 C241.02 2 239.04 2 237 2 C237 2.66 237 3.32 237 4 C160.44 4 83.88 4 5 4 C5 3.34 5 2.68 5 2 C3.02 2 1.04 2 -1 2 C-0.67 1.34 -0.34 0.68 0 0 Z " fill="#5D5C5E" transform="translate(83,436)"/>
<path d="M0 0 C1.9370237 3.23939116 2.19417139 5.4602521 1.9765625 9.203125 C1.925 10.1828125 1.8734375 11.1625 1.8203125 12.171875 C1.75585938 13.18765625 1.69140625 14.2034375 1.625 15.25 C1.56828125 16.28125 1.5115625 17.3125 1.453125 18.375 C1.311881 20.91739205 1.16049254 23.45876238 1 26 C0.67 26 0.34 26 0 26 C-0.19583915 21.85451585 -0.38027842 17.7086033 -0.5625 13.5625 C-0.61857422 12.37849609 -0.67464844 11.19449219 -0.73242188 9.97460938 C-0.78076172 8.84990234 -0.82910156 7.72519531 -0.87890625 6.56640625 C-0.9260376 5.52427979 -0.97316895 4.48215332 -1.02172852 3.40844727 C-1 1 -1 1 0 0 Z " fill="#484748" transform="translate(237,272)"/>
<path d="M0 0 C0.66 1.32 1.32 2.64 2 4 C1.01 4.66 0.02 5.32 -1 6 C-1.73343428 9.06556598 -1.73343428 9.06556598 -2 12 C-4.31 12.33 -6.62 12.66 -9 13 C-8.60167969 12.48050781 -8.20335937 11.96101563 -7.79296875 11.42578125 C-4.97822677 7.72073158 -2.28614026 4.06424935 0 0 Z " fill="#515151" transform="translate(247,314)"/>
<path d="M0 0 C0.33 0.66 0.66 1.32 1 2 C-0.21484375 4.3828125 -0.21484375 4.3828125 -1.9375 7.125 C-2.50339844 8.03507812 -3.06929688 8.94515625 -3.65234375 9.8828125 C-4.09707031 10.58148438 -4.54179687 11.28015625 -5 12 C-5.66 10.68 -6.32 9.36 -7 8 C-6.21366078 6.85050412 -5.42073742 5.70551011 -4.625 4.5625 C-4.18414062 3.92441406 -3.74328125 3.28632813 -3.2890625 2.62890625 C-2 1 -2 1 0 0 Z " fill="#5D5D5D" transform="translate(266,318)"/>
<path d="M0 0 C0.33 0.66 0.66 1.32 1 2 C-3.18461538 8.64615385 -3.18461538 8.64615385 -7.3125 10.4375 C-8.6428125 10.7159375 -8.6428125 10.7159375 -10 11 C-8.50958227 7.20620942 -6.30937488 5.31656242 -3 3 C-2.34 3 -1.68 3 -1 3 C-0.67 2.01 -0.34 1.02 0 0 Z " fill="#585858" transform="translate(267,346)"/>
<path d="M0 0 C3.26857065 2.28799945 5.19198857 4.38397715 7 8 C7.99 8.33 8.98 8.66 10 9 C10 9.99 10 10.98 10 12 C5.99245833 10.66415278 4.62523764 8.23106172 2 5 C1.34 4.67 0.68 4.34 0 4 C0 2.68 0 1.36 0 0 Z " fill="#585858" transform="translate(150,330)"/>
<path d="M0 0 C0.93423645 3.01031744 1.04449911 3.86650268 0 7 C-2.21701147 8.58965571 -4.57862473 9.72327486 -7 11 C-5.22054913 6.95579349 -2.60470327 3.53921513 0 0 Z " fill="#616162" transform="translate(54,152)"/>
<path d="M0 0 C0.66 0.33 1.32 0.66 2 1 C2 4.96 2 8.92 2 13 C1.34 13 0.68 13 0 13 C-1.06671952 9.79984144 -0.94845472 8.11455706 -0.5625 4.8125 C-0.46066406 3.91144531 -0.35882813 3.01039063 -0.25390625 2.08203125 C-0.17011719 1.39496094 -0.08632812 0.70789063 0 0 Z " fill="#151314" transform="translate(236,215)"/>
<path d="M0 0 C0.99 0.33 1.98 0.66 3 1 C2.34 2.32 1.68 3.64 1 5 C0.34 5 -0.32 5 -1 5 C-1.33 5.99 -1.66 6.98 -2 8 C-2.99 7.67 -3.98 7.34 -5 7 C-3.35 4.69 -1.7 2.38 0 0 Z " fill="#4B4B4B" transform="translate(277,333)"/>
<path d="M0 0 C2.31 0 4.62 0 7 0 C5.37660195 1.70884005 3.70680947 3.37446717 2 5 C1.34 5 0.68 5 0 5 C0 3.35 0 1.7 0 0 Z " fill="#413E42" transform="translate(342,427)"/>
<path d="M0 0 C0.66 0 1.32 0 2 0 C2.33 0.99 2.66 1.98 3 3 C0.525 4.485 0.525 4.485 -2 6 C-2 3 -2 3 0 0 Z " fill="#484848" transform="translate(249,337)"/>
<path d="M0 0 C3 2 3 2 3.6875 5.125 C3.8421875 6.548125 3.8421875 6.548125 4 8 C2.68 7.67 1.36 7.34 0 7 C0 4.69 0 2.38 0 0 Z " fill="#161414" transform="translate(44,174)"/>
<path d="M0 0 C1.32 1.32 2.64 2.64 4 4 C2.35 4.33 0.7 4.66 -1 5 C-1.66 4.01 -2.32 3.02 -3 2 C-2.34 2 -1.68 2 -1 2 C-0.67 1.34 -0.34 0.68 0 0 Z " fill="#3A3A3A" transform="translate(165,322)"/>
<path d="M0 0 C0.99 0 1.98 0 3 0 C3.33 0.99 3.66 1.98 4 3 C3.67 3.66 3.34 4.32 3 5 C1.68 4.67 0.36 4.34 -1 4 C-0.67 2.68 -0.34 1.36 0 0 Z " fill="#2B2B2B" transform="translate(157,314)"/>
<path d="M0 0 C0.99 0.99 1.98 1.98 3 3 C2.34 4.32 1.68 5.64 1 7 C0.01 6.01 -0.98 5.02 -2 4 C-1.34 2.68 -0.68 1.36 0 0 Z " fill="#373536" transform="translate(156,193)"/>
</svg>
